<svg width="24" height="24" viewBox="0 0 24 24" fill="none" xmlns="http://www.w3.org/2000/svg">
<path fill-rule="evenodd" clip-rule="evenodd" d="M8.00716 15.6389C8.98027 14.9491 9.61538 13.8139 9.61538 12.5303C9.61538 10.4274 7.91062 8.72266 5.80769 8.72266C3.70476 8.72266 2 10.4274 2 12.5303C2 14.6333 3.70476 16.338 5.80769 16.338C5.80938 16.338 5.81106 16.338 5.81274 16.338V16.3483H16.2758V16.3371C18.3402 16.2927 20 14.6054 20 12.5303C20 10.4274 18.2953 8.72266 16.1923 8.72266C14.0894 8.72266 12.3846 10.4274 12.3846 12.5303C12.3846 13.8139 13.0198 14.9491 13.9929 15.6389H8.00716ZM5.80771 15.5765C7.49005 15.5765 8.85386 14.2127 8.85386 12.5303C8.85386 10.848 7.49005 9.48419 5.80771 9.48419C4.12537 9.48419 2.76156 10.848 2.76156 12.5303C2.76156 14.2127 4.12537 15.5765 5.80771 15.5765ZM16.1923 15.5765C17.8747 15.5765 19.2385 14.2127 19.2385 12.5303C19.2385 10.848 17.8747 9.48419 16.1923 9.48419C14.51 9.48419 13.1462 10.848 13.1462 12.5303C13.1462 14.2127 14.51 15.5765 16.1923 15.5765Z" fill="#FF5932"/>
<path fill-rule="evenodd" clip-rule="evenodd" d="M21.7406 9.90236C21.9758 10.5854 22.0054 11.2896 21.8624 11.9474L21.0758 11.9566C21.2356 11.3827 21.2291 10.7562 21.0205 10.1503C20.6787 9.15768 19.8752 8.45524 18.9328 8.20044L19.2715 7.50596C20.3884 7.85441 21.3304 8.71125 21.7406 9.90236Z" fill="#FF5932"/>
</svg>
