<svg width="24" height="24" viewBox="0 0 24 24" fill="none" xmlns="http://www.w3.org/2000/svg">
<path d="M7.5 12.25C7.5 13.4926 6.49264 14.5 5.25 14.5C4.00736 14.5 3 13.4926 3 12.25C3 11.0074 4.00736 10 5.25 10C6.49264 10 7.5 11.0074 7.5 12.25Z" fill="#FF5932"/>
<path d="M12 12.25C12 12.8713 11.4963 13.375 10.875 13.375C10.2537 13.375 9.75 12.8713 9.75 12.25C9.75 11.6287 10.2537 11.125 10.875 11.125C11.4963 11.125 12 11.6287 12 12.25Z" fill="#FF5932"/>
<path d="M16.5 12.25C16.5 12.8713 15.9963 13.375 15.375 13.375C14.7537 13.375 14.25 12.8713 14.25 12.25C14.25 11.6287 14.7537 11.125 15.375 11.125C15.9963 11.125 16.5 11.6287 16.5 12.25Z" fill="#FF5932"/>
<path d="M21 12.25C21 12.8713 20.4963 13.375 19.875 13.375C19.2537 13.375 18.75 12.8713 18.75 12.25C18.75 11.6287 19.2537 11.125 19.875 11.125C20.4963 11.125 21 11.6287 21 12.25Z" fill="#FF5932"/>
</svg>
