<svg width="16" height="16" viewBox="0 0 16 16" fill="none" xmlns="http://www.w3.org/2000/svg">
<path d="M16 14.5C16 14.7761 15.7761 15 15.5 15L0.5 15C0.223858 15 0 14.7761 0 14.5C0 14.2239 0.223858 14 0.5 14L15.5 14C15.7761 14 16 14.2239 16 14.5Z" fill="#FF5932"/>
<path fill-rule="evenodd" clip-rule="evenodd" d="M15.3796 4.1746C15.5593 4.38427 15.535 4.69992 15.3254 4.87963L7.99999 11.1585L0.674595 4.87963C0.464931 4.69992 0.440651 4.38427 0.620362 4.1746C0.800074 3.96494 1.11572 3.94066 1.32539 4.12037L7.49999 9.41289L7.49999 1C7.49999 0.723858 7.72385 0.5 7.99999 0.5C8.27613 0.5 8.49999 0.723858 8.49999 1L8.49999 9.41289L14.6746 4.12037C14.8843 3.94066 15.1999 3.96494 15.3796 4.1746Z" fill="#FF5932"/>
</svg>
