<svg width="36" height="36" viewBox="0 0 36 36" fill="none" xmlns="http://www.w3.org/2000/svg">
<path fill-rule="evenodd" clip-rule="evenodd" d="M19 24.9836C22.909 24.7263 26 21.4741 26 17.5C26 13.3579 22.6421 10 18.5 10C14.3579 10 11 13.3579 11 17.5C11 21.4741 14.091 24.7263 18 24.9836V26V26.5H19V26V24.9836ZM19 23.9583C22.3436 23.703 24.9773 20.9091 24.9773 17.5C24.9773 13.9227 22.0773 11.0227 18.5 11.0227C14.9227 11.0227 12.0227 13.9227 12.0227 17.5C12.0227 20.9091 14.6563 23.703 18 23.9583V20.9146C17.4174 20.7087 17 20.1531 17 19.5C17 18.6716 17.6716 18 18.5 18C19.3284 18 20 18.6716 20 19.5C20 20.1531 19.5826 20.7087 19 20.9146V23.9583Z" fill="#05BF37"/>
</svg>
