<svg width="36" height="36" viewBox="0 0 36 36" fill="none" xmlns="http://www.w3.org/2000/svg">
<path fill-rule="evenodd" clip-rule="evenodd" d="M8 18C8 14.6863 10.6863 12 14 12H23C26.3137 12 29 14.6863 29 18C29 21.3137 26.3137 24 23 24H21.3182L17.9189 27.116C17.7586 27.263 17.5 27.1492 17.5 26.9317V24H14C10.6863 24 8 21.3137 8 18ZM9 17.9091C9 15.1979 11.1979 13 13.9091 13H23.0909C25.8021 13 28 15.1979 28 17.9091C28 20.6203 25.8021 22.8182 23.0909 22.8182H21.2941L18.5 25V22.8182H13.9091C11.1979 22.8182 9 20.6203 9 17.9091Z" fill="#707687"/>
</svg>
