<svg width="16" height="16" viewBox="0 0 16 16" fill="none" xmlns="http://www.w3.org/2000/svg">
<path d="M0 15.5C0 15.2239 0.223858 15 0.5 15H15.5C15.7761 15 16 15.2239 16 15.5C16 15.7761 15.7761 16 15.5 16H0.5C0.223858 16 0 15.7761 0 15.5Z" fill="#FF5932"/>
<path fill-rule="evenodd" clip-rule="evenodd" d="M0.620381 7.8254C0.44067 7.61573 0.46495 7.30008 0.674613 7.12037L8.00001 0.841461L15.3254 7.12037C15.5351 7.30008 15.5593 7.61573 15.3796 7.8254C15.1999 8.03506 14.8843 8.05934 14.6746 7.87963L8.50001 2.58711V12C8.50001 12.2761 8.27615 12.5 8.00001 12.5C7.72387 12.5 7.50001 12.2761 7.50001 12L7.50001 2.58711L1.3254 7.87963C1.11574 8.05934 0.800092 8.03506 0.620381 7.8254Z" fill="#FF5932"/>
</svg>
