<svg width="24" height="24" viewBox="0 0 24 24" fill="none" xmlns="http://www.w3.org/2000/svg">
<path fill-rule="evenodd" clip-rule="evenodd" d="M14.1818 9.84849V12.0909L9.81818 9.54545L14.1818 7V9.18182H16C18.2091 9.18182 20 10.9727 20 13.1818C20 15.391 18.2091 17.1818 16 17.1818H8C5.79086 17.1818 4 15.391 4 13.1818C4 10.9727 5.79086 9.18182 8 9.18182V9.84867C6.20851 9.86728 4.76199 11.3253 4.76199 13.1212C4.76199 14.9287 6.22723 16.3939 8.03471 16.3939H15.9654C17.7729 16.3939 19.2382 14.9287 19.2382 13.1212C19.2382 11.3137 17.7729 9.84849 15.9654 9.84849H14.1818Z" fill="#05BF37"/>
</svg>
