<svg width="36" height="36" viewBox="0 0 36 36" fill="none" xmlns="http://www.w3.org/2000/svg">
<path d="M16.2941 24.8799C15.8068 24.8799 15.4117 24.4848 15.4117 23.9975V12.8822C15.4117 12.3949 15.8068 11.9999 16.2941 11.9999C16.7814 11.9999 17.1764 12.3949 17.1764 12.8822V23.9975C17.1764 24.4848 16.7814 24.8799 16.2941 24.8799Z" fill="#707687"/>
<path d="M11.8824 24.8799C11.395 24.8799 11 24.4848 11 23.9975V17.0522C11 16.5649 11.395 16.1699 11.8824 16.1699C12.3697 16.1699 12.7647 16.5649 12.7647 17.0522V23.9975C12.7647 24.4848 12.3697 24.8799 11.8824 24.8799Z" fill="#707687"/>
<path d="M20.7059 24.8799C20.2186 24.8799 19.8235 24.4848 19.8235 23.9975V18.8222C19.8235 18.3349 20.2186 17.9399 20.7059 17.9399C21.1932 17.9399 21.5883 18.3349 21.5883 18.8222V23.9975C21.5883 24.4848 21.1932 24.8799 20.7059 24.8799Z" fill="#707687"/>
<path d="M25.1176 24.8799C24.6303 24.8799 24.2353 24.4848 24.2353 23.9975V17.0522C24.2353 16.5649 24.6303 16.1699 25.1176 16.1699C25.605 16.1699 26 16.5649 26 17.0522V23.9975C26 24.4848 25.605 24.8799 25.1176 24.8799Z" fill="#707687"/>
</svg>
