<svg width="60" height="60" viewBox="0 0 60 60" fill="none" xmlns="http://www.w3.org/2000/svg">
<mask id="mask0" mask-type="alpha" maskUnits="userSpaceOnUse" x="0" y="0" width="60" height="60">
<rect width="60" height="60" fill="#C4C4C4"/>
</mask>
<g mask="url(#mask0)">
<rect x="4.28809" y="44.4421" width="1" height="14" transform="rotate(-118.592 4.28809 44.4421)" fill="white"/>
<rect x="55.2798" y="43.7864" width="1" height="14" transform="rotate(120.602 55.2798 43.7864)" fill="white"/>
<rect x="29.5737" y="0.759277" width="1" height="14" transform="rotate(0.602137 29.5737 0.759277)" fill="white"/>
<path fill-rule="evenodd" clip-rule="evenodd" d="M41 30C41 35.5942 36.824 40.2131 31.4192 40.9093V41.076C31.4192 41.8598 30.7838 42.4953 29.9999 42.4953C29.216 42.4953 28.5805 41.8598 28.5805 41.076V40.9093C23.1759 40.2129 19 35.5941 19 30C19 28.065 19.4996 26.2467 20.3769 24.6671L19.8078 24.2685C19.1656 23.8189 19.0096 22.9339 19.4592 22.2918C19.9088 21.6496 20.7939 21.4936 21.436 21.9432L22.064 22.3829C24.0658 20.2979 26.8813 19 30 19C33.1035 19 35.9068 20.2852 37.9067 22.3525L38.4915 21.943C39.1336 21.4934 40.0186 21.6495 40.4682 22.2916C40.9179 22.9337 40.7618 23.8188 40.1197 24.2684L39.6026 24.6304C40.4926 26.2185 41 28.05 41 30ZM39.9355 30C39.9355 35.3685 35.6776 39.7425 30.3546 39.9293V41C30.3546 41.196 30.1957 41.3549 29.9997 41.3549C29.8038 41.3549 29.6449 41.196 29.6449 41V39.9292C24.3221 39.7423 20.0645 35.3683 20.0645 30C20.0645 27.905 20.7129 25.9615 21.8199 24.3592L20.3551 23.3334C20.1946 23.221 20.1555 22.9998 20.2679 22.8392C20.3803 22.6787 20.6016 22.6397 20.7621 22.7521L22.2441 23.7898C24.0649 21.5187 26.8626 20.0645 30 20.0645C33.1169 20.0645 35.8985 21.4998 37.7201 23.7454L39.1389 22.752C39.2994 22.6396 39.5207 22.6786 39.6331 22.8392C39.7455 22.9997 39.7065 23.2209 39.5459 23.3333L38.1476 24.3125C39.2744 25.9237 39.9355 27.8846 39.9355 30Z" fill="white"/>
<circle cx="30" cy="30" r="7.5" stroke="white"/>
<circle cx="30" cy="30" r="1.5" stroke="white"/>
<circle cx="30" cy="30" r="18.375" stroke="#646471" stroke-width="1.25"/>
</g>
</svg>
