<svg width="60" height="60" viewBox="0 0 60 60" fill="none" xmlns="http://www.w3.org/2000/svg">
<g clip-path="url(#clip0)">
<mask id="mask0" mask-type="alpha" maskUnits="userSpaceOnUse" x="-11" y="-11" width="82" height="82">
<rect x="19.0193" y="-10.9807" width="60" height="60" transform="rotate(30 19.0193 -10.9807)" fill="#C4C4C4"/>
</mask>
<g mask="url(#mask0)">
<rect x="0.511963" y="29.6514" width="1" height="14" transform="rotate(-88.5924 0.511963 29.6514)" fill="white"/>
<rect x="44.9998" y="54.5791" width="1" height="14" transform="rotate(150.602 44.9998 54.5791)" fill="white"/>
<rect x="44.2515" y="4.46362" width="1" height="14" transform="rotate(30.6021 44.2515 4.46362)" fill="white"/>
<path fill-rule="evenodd" clip-rule="evenodd" d="M39.5262 35.4999C36.7291 40.3447 30.8031 42.2567 25.7744 40.1572L25.691 40.3016C25.2991 40.9804 24.431 41.213 23.7521 40.8211C23.0733 40.4292 22.8407 39.5611 23.2326 38.8822L23.316 38.7379C18.9836 35.4325 17.6766 29.3446 20.4736 24.4999C21.4411 22.8242 22.783 21.4993 24.3325 20.5699L24.0389 19.9402C23.7076 19.2298 24.015 18.3853 24.7254 18.054C25.4359 17.7227 26.2804 18.0301 26.6117 18.7405L26.9357 19.4353C29.7118 18.6305 32.799 18.9143 35.4999 20.4736C38.1876 22.0254 39.9727 24.5401 40.6711 27.3303L41.3822 27.2681C42.1631 27.1998 42.8515 27.7775 42.9199 28.5584C42.9882 29.3393 42.4105 30.0277 41.6296 30.096L41.0008 30.151C40.9775 31.9714 40.5012 33.8112 39.5262 35.4999ZM38.6043 34.9676C35.92 39.6169 30.0456 41.276 25.3424 38.7762L24.807 39.7035C24.709 39.8732 24.492 39.9314 24.3222 39.8334C24.1525 39.7354 24.0944 39.5184 24.1924 39.3487L24.7278 38.4213C20.2116 35.598 18.7113 29.6813 21.3955 25.0321C22.443 23.2179 23.9763 21.8589 25.7362 21.0248L24.9804 19.404C24.8976 19.2264 24.9745 19.0153 25.1521 18.9325C25.3297 18.8497 25.5408 18.9265 25.6236 19.1041L26.3882 20.7437C29.1006 19.6873 32.2506 19.8268 34.9676 21.3955C37.667 22.954 39.3583 25.5878 39.813 28.4434L41.5384 28.2924C41.7336 28.2753 41.9057 28.4197 41.9228 28.615C41.9399 28.8102 41.7955 28.9823 41.6003 28.9994L39.8997 29.1482C40.0699 31.1069 39.662 33.1357 38.6043 34.9676Z" fill="white"/>
<circle cx="30" cy="30" r="7.5" transform="rotate(30 30 30)" stroke="white"/>
<circle cx="30.0001" cy="29.9999" r="1.5" transform="rotate(30 30.0001 29.9999)" stroke="white"/>
</g>
</g>
<defs>
<clipPath id="clip0">
<rect width="60" height="60" fill="white"/>
</clipPath>
</defs>
</svg>
