<svg width="109" height="109" viewBox="0 0 109 109" fill="none" xmlns="http://www.w3.org/2000/svg">
<circle cx="11.4737" cy="11.4737" r="2.86842" fill="#0F0E0F"/>
<circle cx="20.0789" cy="11.4737" r="2.86842" fill="#0F0E0F"/>
<circle cx="28.6842" cy="11.4737" r="2.86842" fill="#0F0E0F"/>
<circle cx="37.2895" cy="11.4737" r="2.86842" fill="#0F0E0F"/>
<circle cx="45.8947" cy="11.4737" r="2.86842" fill="#0F0E0F"/>
<circle cx="54.5" cy="11.4737" r="2.86842" fill="#0F0E0F"/>
<circle cx="63.1053" cy="11.4737" r="2.86842" fill="#0F0E0F"/>
<circle cx="71.7105" cy="11.4737" r="2.86842" fill="#0F0E0F"/>
<circle cx="80.3158" cy="11.4737" r="2.86842" fill="#0F0E0F"/>
<circle cx="28.6842" cy="2.86842" r="2.86842" fill="#0F0E0F"/>
<circle cx="37.2895" cy="2.86842" r="2.86842" fill="#0F0E0F"/>
<circle cx="45.8947" cy="2.86842" r="2.86842" fill="#0F0E0F"/>
<circle cx="54.5" cy="2.86842" r="2.86842" fill="#0F0E0F"/>
<circle cx="63.1053" cy="2.86842" r="2.86842" fill="#0F0E0F"/>
<circle cx="71.7105" cy="2.86842" r="2.86842" fill="#0F0E0F"/>
<circle cx="80.3158" cy="2.86842" r="2.86842" fill="#0F0E0F"/>
<circle cx="88.9211" cy="11.4737" r="2.86842" fill="#0F0E0F"/>
<circle cx="97.5263" cy="11.4737" r="2.86842" fill="#0F0E0F"/>
<circle cx="11.4737" cy="20.0789" r="2.86842" fill="#0F0E0F"/>
<circle cx="20.0789" cy="20.0789" r="2.86842" fill="#0F0E0F"/>
<circle cx="28.6842" cy="20.0789" r="2.86842" fill="#0F0E0F"/>
<circle cx="37.2895" cy="20.0789" r="2.86842" fill="#0F0E0F"/>
<circle cx="45.8947" cy="20.0789" r="2.86842" fill="#0F0E0F"/>
<circle cx="54.5" cy="20.0789" r="2.86842" fill="#0F0E0F"/>
<circle cx="63.1053" cy="20.0789" r="2.86842" fill="#0F0E0F"/>
<circle cx="71.7105" cy="20.0789" r="2.86842" fill="#0F0E0F"/>
<circle cx="80.3158" cy="20.0789" r="2.86842" fill="#0F0E0F"/>
<circle cx="88.9211" cy="20.0789" r="2.86842" fill="#0F0E0F"/>
<circle cx="97.5263" cy="20.0789" r="2.86842" fill="#0F0E0F"/>
<circle cx="11.4737" cy="28.6842" r="2.86842" fill="#0F0E0F"/>
<circle cx="20.0789" cy="28.6842" r="2.86842" fill="#0F0E0F"/>
<circle cx="28.6842" cy="28.6842" r="2.86842" fill="#0F0E0F"/>
<circle cx="37.2895" cy="28.6842" r="2.86842" fill="#0F0E0F"/>
<circle cx="45.8947" cy="28.6842" r="2.86842" fill="#0F0E0F"/>
<circle cx="54.5" cy="28.6842" r="2.86842" fill="#0F0E0F"/>
<circle cx="63.1053" cy="28.6842" r="2.86842" fill="#0F0E0F"/>
<circle cx="71.7105" cy="28.6842" r="2.86842" fill="#0F0E0F"/>
<circle cx="80.3158" cy="28.6842" r="2.86842" fill="#0F0E0F"/>
<circle cx="88.9211" cy="28.6842" r="2.86842" fill="#0F0E0F"/>
<circle cx="97.5263" cy="28.6842" r="2.86842" fill="#0F0E0F"/>
<circle cx="11.4737" cy="37.2895" r="2.86842" fill="#0F0E0F"/>
<circle cx="20.0789" cy="37.2895" r="2.86842" fill="#0F0E0F"/>
<circle cx="28.6842" cy="37.2895" r="2.86842" fill="#0F0E0F"/>
<circle cx="37.2895" cy="37.2895" r="2.86842" fill="#0F0E0F"/>
<circle cx="45.8947" cy="37.2895" r="2.86842" fill="#0F0E0F"/>
<circle cx="54.5" cy="37.2895" r="2.86842" fill="#0F0E0F"/>
<circle cx="63.1053" cy="37.2895" r="2.86842" fill="#0F0E0F"/>
<circle cx="71.7105" cy="37.2895" r="2.86842" fill="#0F0E0F"/>
<circle cx="80.3158" cy="37.2895" r="2.86842" fill="#0F0E0F"/>
<circle cx="88.9211" cy="37.2895" r="2.86842" fill="#0F0E0F"/>
<circle cx="97.5263" cy="37.2895" r="2.86842" fill="#0F0E0F"/>
<circle cx="11.4737" cy="45.8947" r="2.86842" fill="#0F0E0F"/>
<circle cx="20.0789" cy="45.8947" r="2.86842" fill="#0F0E0F"/>
<circle cx="28.6842" cy="45.8947" r="2.86842" fill="#0F0E0F"/>
<circle cx="37.2895" cy="45.8947" r="2.86842" fill="#0F0E0F"/>
<circle cx="45.8947" cy="45.8947" r="2.86842" fill="#0F0E0F"/>
<circle cx="54.5" cy="45.8947" r="2.86842" fill="#0F0E0F"/>
<circle cx="63.1053" cy="45.8947" r="2.86842" fill="#0F0E0F"/>
<circle cx="71.7105" cy="45.8947" r="2.86842" fill="#0F0E0F"/>
<circle cx="80.3158" cy="45.8947" r="2.86842" fill="#0F0E0F"/>
<circle cx="88.9211" cy="45.8947" r="2.86842" fill="#0F0E0F"/>
<circle cx="97.5263" cy="45.8947" r="2.86842" fill="#0F0E0F"/>
<circle cx="11.4737" cy="54.5" r="2.86842" fill="#0F0E0F"/>
<circle cx="20.0789" cy="54.5" r="2.86842" fill="#0F0E0F"/>
<circle cx="28.6842" cy="54.5" r="2.86842" fill="#0F0E0F"/>
<circle cx="37.2895" cy="54.5" r="2.86842" fill="#0F0E0F"/>
<circle cx="45.8947" cy="54.5" r="2.86842" fill="#0F0E0F"/>
<circle cx="54.5" cy="54.5" r="2.86842" fill="#0F0E0F"/>
<circle cx="63.1053" cy="54.5" r="2.86842" fill="#0F0E0F"/>
<circle cx="71.7105" cy="54.5" r="2.86842" fill="#0F0E0F"/>
<circle cx="80.3158" cy="54.5" r="2.86842" fill="#0F0E0F"/>
<circle cx="88.9211" cy="54.5" r="2.86842" fill="#0F0E0F"/>
<circle cx="97.5263" cy="54.5" r="2.86842" fill="#0F0E0F"/>
<circle cx="11.4737" cy="63.1053" r="2.86842" fill="#0F0E0F"/>
<circle cx="20.0789" cy="63.1053" r="2.86842" fill="#0F0E0F"/>
<circle cx="28.6842" cy="63.1053" r="2.86842" fill="#0F0E0F"/>
<circle cx="37.2895" cy="63.1053" r="2.86842" fill="#0F0E0F"/>
<circle cx="45.8947" cy="63.1053" r="2.86842" fill="#0F0E0F"/>
<circle cx="54.5" cy="63.1053" r="2.86842" fill="#0F0E0F"/>
<circle cx="63.1053" cy="63.1053" r="2.86842" fill="#0F0E0F"/>
<circle cx="71.7105" cy="63.1053" r="2.86842" fill="#0F0E0F"/>
<circle cx="80.3158" cy="63.1053" r="2.86842" fill="#0F0E0F"/>
<circle cx="88.9211" cy="63.1053" r="2.86842" fill="#0F0E0F"/>
<circle cx="97.5263" cy="63.1053" r="2.86842" fill="#0F0E0F"/>
<circle cx="11.4737" cy="71.7105" r="2.86842" fill="#0F0E0F"/>
<circle cx="20.0789" cy="71.7105" r="2.86842" fill="#0F0E0F"/>
<circle cx="28.6842" cy="71.7105" r="2.86842" fill="#0F0E0F"/>
<circle cx="37.2895" cy="71.7105" r="2.86842" fill="#0F0E0F"/>
<circle cx="45.8947" cy="71.7105" r="2.86842" fill="#0F0E0F"/>
<circle cx="54.5" cy="71.7105" r="2.86842" fill="#0F0E0F"/>
<circle cx="63.1053" cy="71.7105" r="2.86842" fill="#0F0E0F"/>
<circle cx="71.7105" cy="71.7105" r="2.86842" fill="#0F0E0F"/>
<circle cx="80.3158" cy="71.7105" r="2.86842" fill="#0F0E0F"/>
<circle cx="88.9211" cy="71.7105" r="2.86842" fill="#0F0E0F"/>
<circle cx="97.5263" cy="71.7105" r="2.86842" fill="#0F0E0F"/>
<circle cx="11.4737" cy="80.3158" r="2.86842" fill="#0F0E0F"/>
<circle cx="2.86842" cy="28.6842" r="2.86842" fill="#0F0E0F"/>
<circle cx="2.86842" cy="37.2895" r="2.86842" fill="#0F0E0F"/>
<circle cx="2.86842" cy="45.8947" r="2.86842" fill="#0F0E0F"/>
<circle cx="2.86842" cy="54.5" r="2.86842" fill="#0F0E0F"/>
<circle cx="2.86842" cy="63.1053" r="2.86842" fill="#0F0E0F"/>
<circle cx="2.86842" cy="71.7105" r="2.86842" fill="#0F0E0F"/>
<circle cx="2.86842" cy="80.3158" r="2.86842" fill="#0F0E0F"/>
<circle cx="20.0789" cy="80.3158" r="2.86842" fill="#0F0E0F"/>
<circle cx="28.6842" cy="80.3158" r="2.86842" fill="#0F0E0F"/>
<circle cx="37.2895" cy="80.3158" r="2.86842" fill="#0F0E0F"/>
<circle cx="45.8947" cy="80.3158" r="2.86842" fill="#0F0E0F"/>
<circle cx="54.5" cy="80.3158" r="2.86842" fill="#0F0E0F"/>
<circle cx="63.1053" cy="80.3158" r="2.86842" fill="#0F0E0F"/>
<circle cx="71.7105" cy="80.3158" r="2.86842" fill="#0F0E0F"/>
<circle cx="80.3158" cy="80.3158" r="2.86842" fill="#0F0E0F"/>
<circle cx="88.9211" cy="80.3158" r="2.86842" fill="#0F0E0F"/>
<circle cx="97.5263" cy="80.3158" r="2.86842" fill="#0F0E0F"/>
<circle cx="106.132" cy="28.6842" r="2.86842" fill="#0F0E0F"/>
<circle cx="106.132" cy="37.2895" r="2.86842" fill="#0F0E0F"/>
<circle cx="106.132" cy="45.8947" r="2.86842" fill="#0F0E0F"/>
<circle cx="106.132" cy="54.5" r="2.86842" fill="#0F0E0F"/>
<circle cx="106.132" cy="63.1053" r="2.86842" fill="#0F0E0F"/>
<circle cx="106.132" cy="71.7105" r="2.86842" fill="#0F0E0F"/>
<circle cx="106.132" cy="80.3158" r="2.86842" fill="#0F0E0F"/>
<circle cx="11.4737" cy="88.9211" r="2.86842" fill="#0F0E0F"/>
<circle cx="20.0789" cy="88.9211" r="2.86842" fill="#0F0E0F"/>
<circle cx="28.6842" cy="88.9211" r="2.86842" fill="#0F0E0F"/>
<circle cx="37.2895" cy="88.9211" r="2.86842" fill="#0F0E0F"/>
<circle cx="45.8947" cy="88.9211" r="2.86842" fill="#0F0E0F"/>
<circle cx="54.5" cy="88.9211" r="2.86842" fill="#0F0E0F"/>
<circle cx="63.1053" cy="88.9211" r="2.86842" fill="#0F0E0F"/>
<circle cx="71.7105" cy="88.9211" r="2.86842" fill="#0F0E0F"/>
<circle cx="80.3158" cy="88.9211" r="2.86842" fill="#0F0E0F"/>
<circle cx="88.9211" cy="88.9211" r="2.86842" fill="#0F0E0F"/>
<circle cx="97.5263" cy="88.9211" r="2.86842" fill="#0F0E0F"/>
<circle cx="11.4737" cy="97.5263" r="2.86842" fill="#0F0E0F"/>
<circle cx="20.0789" cy="97.5263" r="2.86842" fill="#0F0E0F"/>
<circle cx="28.6842" cy="97.5263" r="2.86842" fill="#0F0E0F"/>
<circle cx="37.2895" cy="97.5263" r="2.86842" fill="#0F0E0F"/>
<circle cx="45.8947" cy="97.5263" r="2.86842" fill="#0F0E0F"/>
<circle cx="54.5" cy="97.5263" r="2.86842" fill="#0F0E0F"/>
<circle cx="63.1053" cy="97.5263" r="2.86842" fill="#0F0E0F"/>
<circle cx="71.7105" cy="97.5263" r="2.86842" fill="#0F0E0F"/>
<circle cx="80.3158" cy="97.5263" r="2.86842" fill="#0F0E0F"/>
<circle cx="28.6842" cy="106.132" r="2.86842" fill="#0F0E0F"/>
<circle cx="37.2895" cy="106.132" r="2.86842" fill="#0F0E0F"/>
<circle cx="45.8947" cy="106.132" r="2.86842" fill="#0F0E0F"/>
<circle cx="54.5" cy="106.132" r="2.86842" fill="#0F0E0F"/>
<circle cx="63.1053" cy="106.132" r="2.86842" fill="#0F0E0F"/>
<circle cx="71.7105" cy="106.132" r="2.86842" fill="#0F0E0F"/>
<circle cx="80.3158" cy="106.132" r="2.86842" fill="#0F0E0F"/>
<circle cx="88.9211" cy="97.5263" r="2.86842" fill="#0F0E0F"/>
<circle cx="97.5263" cy="97.5263" r="2.86842" fill="#0F0E0F"/>
</svg>
