<svg width="16" height="16" viewBox="0 0 16 16" fill="none" xmlns="http://www.w3.org/2000/svg">
<path fill-rule="evenodd" clip-rule="evenodd" d="M13.2405 6.31901C14.0334 6.31901 14.8002 5.47521 14.8002 4.75934C14.8002 3.89796 14.1019 3.19968 13.2405 3.19968C12.3792 3.19968 11.6809 3.89796 11.6809 4.75934C11.6809 5.62072 12.3792 6.31901 13.2405 6.31901ZM16 4.75941C16 6.04074 15.1267 7.11809 13.9428 7.42868L10.8848 8.54168L13.8561 9.45009C15.076 9.73282 15.9846 10.8175 15.9846 12.1124C15.9846 13.6224 14.7492 14.8465 13.2252 14.8465C11.7012 14.8465 10.4658 13.6224 10.4658 12.1124C10.4658 11.2458 10.8727 10.4734 11.5075 9.97245L9.03265 9.21582L0.832855 12.2003C0.522528 12.3132 0.179394 12.1532 0.0664444 11.8429C-0.0465053 11.5326 0.1135 11.1895 0.423827 11.0765L7.1323 8.63482L0.422251 6.58335C0.108995 6.48758 -0.0688168 6.15554 0.0250976 5.84173C0.119012 5.52791 0.449089 5.35115 0.762344 5.44692L8.98449 7.96068L11.6277 6.99862C10.9332 6.49751 10.4812 5.68125 10.4812 4.75941C10.4812 3.23543 11.7166 2 13.2406 2C14.7646 2 16 3.23543 16 4.75941ZM13.2251 13.6575C14.0865 13.6575 14.7848 12.9656 14.7848 12.1121C14.7848 11.2586 14.0865 10.5668 13.2251 10.5668C12.3637 10.5668 11.6655 11.2586 11.6655 12.1121C11.6655 12.9656 12.3637 13.6575 13.2251 13.6575Z" fill="#FF5932"/>
</svg>
