<svg width="36" height="36" viewBox="0 0 36 36" fill="none" xmlns="http://www.w3.org/2000/svg">
<path fill-rule="evenodd" clip-rule="evenodd" d="M12.9 14.3C12.3667 13.9 11.6333 13.9 11.1 14.3C10.7223 14.5833 10.5 15.0279 10.5 15.5V21C10.5 21.7869 10.1295 22.5279 9.5 23C8.61111 23.6667 7.38889 23.6667 6.5 23L5.7 22.4C5.47909 22.2343 5.43431 21.9209 5.6 21.7C5.76568 21.4791 6.07909 21.4343 6.3 21.6L7.1 22.2C7.63333 22.6 8.36667 22.6 8.9 22.2C9.27771 21.9167 9.5 21.4721 9.5 21V15.5C9.5 14.7131 9.87048 13.9721 10.5 13.5C11.3889 12.8333 12.6111 12.8333 13.5 13.5C14.1295 13.9721 14.5 14.7131 14.5 15.5V21C14.5 21.4721 14.7223 21.9167 15.1 22.2C15.6333 22.6 16.3667 22.6 16.9 22.2C17.2777 21.9167 17.5 21.4721 17.5 21V15.5C17.5 14.7131 17.8705 13.9721 18.5 13.5C19.3889 12.8333 20.6111 12.8333 21.5 13.5C22.1295 13.9721 22.5 14.7131 22.5 15.5V21.0388C22.5 21.4944 22.7071 21.9254 23.063 22.2101L23.4145 22.4913C24.0114 22.9688 24.8718 22.9211 25.4122 22.3807L25.5607 22.2322C25.842 21.9509 26 21.5694 26 21.1716V15.4142C26 14.6813 26.3451 13.9912 26.9314 13.5515C27.8584 12.8562 29.1555 12.9484 29.9749 13.7678L30.8536 14.6464C31.0488 14.8417 31.0488 15.1583 30.8536 15.3536C30.6583 15.5488 30.3417 15.5488 30.1464 15.3536L29.2678 14.4749C28.8003 14.0074 28.0602 13.9548 27.5314 14.3515C27.1969 14.6024 27 14.9961 27 15.4142V21.1716C27 21.8346 26.7366 22.4705 26.2678 22.9393L26.1193 23.0878C25.2186 23.9885 23.7846 24.068 22.7898 23.2722L22.4383 22.9909C21.8452 22.5165 21.5 21.7982 21.5 21.0388V15.5C21.5 15.0279 21.2777 14.5833 20.9 14.3C20.3667 13.9 19.6333 13.9 19.1 14.3C18.7223 14.5833 18.5 15.0279 18.5 15.5V21C18.5 21.7869 18.1295 22.5279 17.5 23C16.6111 23.6667 15.3889 23.6667 14.5 23C13.8705 22.5279 13.5 21.7869 13.5 21V15.5C13.5 15.0279 13.2777 14.5833 12.9 14.3Z" fill="#3297D9"/>
</svg>
