<svg width="36" height="36" viewBox="0 0 36 36" fill="none" xmlns="http://www.w3.org/2000/svg">
<path fill-rule="evenodd" clip-rule="evenodd" d="M14.2384 22.4854C15.573 21.5394 16.4441 19.9824 16.4441 18.222C16.4441 15.338 14.1061 13 11.222 13C8.33799 13 6 15.338 6 18.222C6 21.1061 8.33799 23.4441 11.222 23.4441C11.2244 23.4441 11.2267 23.4441 11.2291 23.4441V23.4582H25.5786V23.4429C28.4097 23.3819 30.686 21.0678 30.686 18.222C30.686 15.338 28.3481 13 25.464 13C22.5799 13 20.242 15.338 20.242 18.222C20.242 19.9824 21.113 21.5394 22.4476 22.4854H14.2384ZM11.222 22.3997C13.5293 22.3997 15.3997 20.5293 15.3997 18.222C15.3997 15.9148 13.5293 14.0444 11.222 14.0444C8.91477 14.0444 7.04438 15.9148 7.04438 18.222C7.04438 20.5293 8.91477 22.3997 11.222 22.3997ZM25.464 22.3997C27.7712 22.3997 29.6416 20.5293 29.6416 18.222C29.6416 15.9148 27.7712 14.0444 25.464 14.0444C23.1567 14.0444 21.2863 15.9148 21.2863 18.222C21.2863 20.5293 23.1567 22.3997 25.464 22.3997Z" fill="#FF5932"/>
</svg>
