<svg width="36" height="36" viewBox="0 0 36 36" fill="none" xmlns="http://www.w3.org/2000/svg">
<path fill-rule="evenodd" clip-rule="evenodd" d="M15.636 10.9863H18.3692C18.5825 10.9863 18.7723 11.1217 18.8419 11.3233L23.4371 24.6494C23.549 24.9741 23.3078 25.3124 22.9644 25.3124H11.5003C11.1634 25.3124 10.923 24.9859 11.0228 24.6642L15.1585 11.3381C15.2234 11.1289 15.417 10.9863 15.636 10.9863ZM16.1233 11.742H17.8084C18.0243 11.742 18.2159 11.8806 18.2834 12.0857L22.1526 23.8421C22.259 24.1655 22.0181 24.4984 21.6776 24.4984H12.7006C12.3673 24.4984 12.1274 24.1786 12.2205 23.8587L15.6433 12.1022C15.7054 11.8888 15.901 11.742 16.1233 11.742Z" fill="#707687"/>
<path fill-rule="evenodd" clip-rule="evenodd" d="M23.8803 14.9054C24.7273 15.4667 25.8798 15.3741 26.6262 14.6278C27.4781 13.7758 27.4781 12.3946 26.6262 11.5426C25.7742 10.6906 24.3929 10.6906 23.541 11.5426C22.7947 12.2889 22.7021 13.4413 23.2632 14.2883L16.2746 21.2769C16.1043 21.4473 16.1043 21.7236 16.2746 21.894C16.445 22.0644 16.7213 22.0644 16.8917 21.894L23.8803 14.9054Z" fill="#707687"/>
</svg>
